<?xml version="1.0" standalone="no"?>
<!DOCTYPE svg PUBLIC "-//W3C//DTD SVG 20010904//EN"
 "http://www.w3.org/TR/2001/REC-SVG-20010904/DTD/svg10.dtd">
<svg version="1.0" xmlns="http://www.w3.org/2000/svg"
 width="1024.000000pt" height="1024.000000pt" viewBox="0 0 1024.000000 1024.000000"
 preserveAspectRatio="xMidYMid meet">
<metadata>
Created by potrace 1.11, written by Peter Selinger 2001-2013
</metadata>
<g transform="translate(0.000000,1024.000000) scale(0.100000,-0.100000)"
fill="#000000" stroke="none">
<path d="M3977 10155 c-81 -28 -134 -93 -161 -197 -16 -63 -1 -60 -221 -33
-86 11 -125 15 -180 20 -33 4 -71 8 -85 10 -86 12 -130 17 -255 30 -33 4 -71
8 -85 10 -14 2 -52 7 -85 10 -33 4 -73 9 -90 11 -16 2 -55 6 -85 10 -30 3 -82
9 -115 13 -166 22 -258 11 -370 -45 -157 -78 -259 -225 -280 -405 -3 -30 -10
-88 -16 -130 -5 -41 -12 -95 -14 -119 -3 -25 -7 -67 -10 -95 -3 -27 -7 -66
-10 -85 -2 -19 -7 -60 -10 -90 -3 -30 -8 -66 -10 -80 -2 -14 -7 -52 -10 -85
-3 -33 -10 -89 -15 -125 -5 -36 -12 -90 -15 -120 -3 -30 -8 -75 -11 -100 -3
-25 -6 -58 -8 -75 -8 -72 -18 -161 -21 -175 -2 -8 -6 -49 -10 -90 -4 -41 -9
-84 -11 -95 -2 -10 -6 -49 -10 -85 -3 -36 -7 -72 -9 -80 -2 -8 -6 -44 -10 -80
-3 -36 -8 -76 -10 -90 -2 -14 -6 -50 -10 -80 -3 -30 -8 -72 -11 -92 -2 -21 -6
-55 -8 -75 -3 -21 -8 -63 -11 -93 -3 -30 -8 -71 -10 -90 -2 -19 -7 -60 -10
-90 -4 -30 -8 -66 -10 -80 -4 -26 -9 -72 -20 -175 -4 -33 -9 -71 -11 -85 -13
-65 -12 -229 1 -280 21 -80 70 -170 122 -224 43 -45 126 -105 166 -119 13 -5
17 -18 17 -60 0 -138 65 -264 168 -324 55 -33 97 -42 262 -58 36 -4 76 -8 90
-10 14 -2 57 -7 95 -10 39 -4 79 -9 90 -10 11 -2 30 -4 41 -4 20 -1 22 -6 21
-83 -2 -140 51 -245 159 -317 68 -45 128 -60 304 -77 25 -2 63 -6 85 -9 22 -2
67 -7 100 -10 33 -3 74 -8 90 -10 17 -2 57 -7 90 -10 33 -3 76 -8 95 -11 19
-3 60 -7 90 -10 30 -2 71 -7 90 -9 19 -3 62 -8 95 -10 33 -3 71 -7 85 -10 14
-2 54 -7 90 -10 36 -4 79 -8 95 -10 17 -2 57 -6 90 -10 33 -3 76 -8 95 -10 34
-5 69 -9 180 -20 30 -3 66 -8 80 -10 14 -2 57 -6 95 -10 39 -3 81 -8 95 -10
14 -2 56 -6 93 -10 37 -3 76 -8 85 -9 9 -2 49 -7 87 -10 39 -4 86 -9 105 -11
50 -6 115 -13 185 -20 33 -3 74 -7 90 -10 17 -2 57 -7 90 -10 33 -3 76 -8 95
-11 19 -3 60 -7 90 -9 31 -2 69 -6 85 -9 17 -2 59 -7 95 -11 36 -4 76 -8 90
-10 14 -2 52 -6 85 -10 88 -8 135 -13 185 -19 84 -10 325 -36 380 -42 30 -3
69 -7 85 -9 17 -2 59 -7 95 -10 36 -4 76 -8 90 -11 14 -2 64 -7 111 -10 140
-11 234 21 319 106 55 55 85 116 101 204 11 64 12 66 38 61 14 -2 55 -7 91
-10 36 -3 81 -7 100 -10 19 -3 53 -7 75 -9 22 -3 72 -8 110 -13 133 -15 215
-9 270 19 85 44 156 130 189 231 4 14 17 17 71 17 78 0 62 -2 138 19 145 42
259 135 325 266 30 60 42 112 57 240 4 32 8 66 10 75 2 8 6 49 10 90 4 41 8
82 10 90 1 8 6 46 10 83 3 37 8 77 10 87 2 10 6 47 10 82 3 35 8 77 10 93 3
17 7 53 10 80 7 60 15 128 21 175 3 19 7 58 10 85 6 63 12 120 19 165 2 19 7
60 10 90 3 30 8 72 10 93 12 93 16 124 20 157 3 19 7 62 10 95 3 33 7 69 9 80
2 11 7 47 10 80 11 101 17 149 21 180 2 17 7 57 10 90 4 33 9 72 11 88 2 15 7
51 9 80 3 28 7 68 10 87 2 19 7 60 10 90 4 30 8 66 10 80 2 14 6 54 10 90 3
36 8 76 10 90 42 248 3 403 -135 540 -98 98 -188 137 -356 154 -32 4 -93 11
-134 16 -41 5 -100 12 -130 15 -30 4 -66 8 -80 10 -14 2 -52 6 -85 10 -33 3
-71 8 -85 10 -14 2 -56 6 -95 10 -38 3 -77 8 -85 10 -8 2 -46 6 -83 10 -37 3
-77 8 -87 10 -10 2 -50 7 -87 11 -37 3 -75 8 -83 9 -8 2 -20 4 -26 4 -6 1 -13
28 -16 64 -8 96 -28 147 -74 193 -41 41 -46 43 -154 59 -14 2 -50 7 -80 10
-52 5 -109 12 -175 20 -16 2 -61 7 -100 10 -38 4 -72 8 -75 10 -3 1 -39 6 -80
9 -41 4 -86 9 -100 11 -14 3 -43 7 -65 9 -135 15 -163 18 -188 22 -15 2 -51 7
-80 9 -28 3 -68 7 -87 10 -19 3 -57 7 -85 9 -27 3 -66 7 -85 10 -19 3 -55 7
-80 10 -90 10 -146 17 -175 21 -16 2 -57 7 -90 10 -33 3 -91 10 -130 15 -81
11 -137 17 -215 25 -30 4 -68 8 -85 10 -35 5 -281 33 -340 39 -47 6 -126 15
-175 21 -19 3 -60 7 -90 10 -30 3 -66 8 -80 10 -14 2 -50 7 -80 10 -30 3 -71
7 -90 10 -19 2 -57 7 -85 10 -27 3 -66 7 -85 10 -19 2 -78 9 -130 15 -52 6
-108 13 -125 15 -16 2 -59 7 -95 11 -36 3 -67 8 -70 9 -3 2 -22 -3 -43 -10z
m-32 -1380 c311 -33 594 -263 695 -565 26 -76 28 -87 37 -160 31 -254 -46
-488 -222 -678 -80 -87 -241 -192 -330 -217 -16 -4 -34 -10 -40 -11 -127 -40
-314 -44 -445 -10 -399 104 -666 467 -636 865 7 104 10 117 38 206 81 252 301
467 553 541 121 35 221 43 350 29z m3190 -423 c243 -53 431 -185 557 -393 87
-143 123 -280 120 -455 -5 -323 -220 -629 -527 -751 -497 -197 -1053 116
-1145 645 -14 78 -11 219 5 290 7 29 13 54 13 55 1 21 34 109 64 167 119 230
342 396 594 444 79 15 245 13 319 -2z"/>
<path d="M2843 5141 c-115 -29 -222 -154 -248 -288 -11 -58 -16 -2119 -5
-2167 25 -113 99 -208 195 -252 48 -22 71 -26 158 -27 114 -1 163 10 222 49
94 61 152 172 161 303 9 148 12 2056 3 2104 -20 109 -94 208 -188 255 -49 23
-69 27 -161 29 -58 1 -119 -2 -137 -6z"/>
<path d="M3914 4966 c-146 -36 -265 -164 -291 -311 -5 -27 -8 -705 -8 -1505
l2 -1455 23 -59 c33 -87 129 -179 240 -233 47 -22 213 -82 370 -133 375 -121
598 -194 744 -241 65 -22 124 -39 131 -39 10 0 903 296 1040 345 142 50 287
160 335 255 43 85 43 65 42 1450 0 729 -2 1341 -5 1360 -16 94 -72 197 -139
254 -50 43 -143 93 -188 100 -19 3 -46 8 -60 10 -14 3 -56 7 -95 11 -38 3 -83
8 -100 10 -38 5 -145 15 -210 21 -27 2 -68 6 -90 9 -22 3 -65 7 -95 10 -30 2
-82 8 -115 12 -33 4 -63 6 -67 5 -4 -1 -42 3 -85 8 -43 6 -107 13 -143 16 -36
3 -81 7 -100 9 -19 2 -66 7 -105 10 -38 3 -81 8 -95 10 -14 2 -56 7 -95 10
-38 3 -84 8 -100 10 -17 3 -62 7 -100 10 -39 3 -86 7 -105 10 -34 4 -60 7
-200 21 -36 3 -77 7 -91 9 -101 12 -200 13 -245 1z"/>
<path d="M7077 4658 c-132 -17 -243 -112 -277 -238 -8 -31 -13 -203 -15 -575
-2 -291 -5 -670 -6 -841 -2 -269 0 -318 15 -365 33 -103 121 -192 218 -219 57
-16 187 -18 254 -4 93 19 157 64 212 149 46 72 50 112 52 468 0 183 2 562 3
842 2 555 2 557 -55 641 -35 53 -81 92 -137 117 -53 23 -181 35 -264 25z"/>
<path d="M3776 1178 c-189 -25 -355 -196 -400 -410 -33 -160 15 -344 114 -436
56 -53 117 -78 472 -197 l371 -125 198 0 197 0 49 39 c145 114 214 264 209
456 -3 114 -28 191 -87 269 -63 82 -99 98 -555 252 -236 80 -445 147 -464 150
-19 3 -37 7 -40 8 -3 1 -32 -1 -64 -6z"/>
<path d="M6305 1134 c-31 -8 -203 -64 -275 -89 -36 -13 -182 -63 -325 -111
-296 -99 -318 -108 -371 -162 -66 -66 -102 -138 -119 -237 -30 -176 28 -358
157 -487 l38 -38 288 0 288 0 311 104 c171 57 328 115 349 129 118 74 189 220
186 385 -4 264 -202 497 -432 508 -41 1 -84 1 -95 -2z"/>
</g>
</svg>
